<?xml version="1.0" encoding="utf-8"?>
<!-- Generator: Adobe Illustrator 19.1.0, SVG Export Plug-In . SVG Version: 6.00 Build 0)  -->
<svg version="1.1" id="Layer_1" xmlns="http://www.w3.org/2000/svg" xmlns:xlink="http://www.w3.org/1999/xlink" x="0px" y="0px"
	 width="155px" height="25px" viewBox="0 0 155 25" enable-background="new 0 0 155 25" xml:space="preserve">
<path fill="#E2670F" d="M6.5,7v10.1h15.2v-2.7h-8.9V9.4h14v12.8H1.4V1.9h25.3V7H6.5z"/>
<path fill="#A3AEBA" d="M29.9,3.9h22.9v4.6H34.5v13.7h-4.6V3.9z"/>
<path fill="#A3AEBA" d="M55.7,3.9h4.6v18.3h-4.6V3.9z"/>
<path fill="#A3AEBA" d="M90.9,3.9h4.6v18.3h-4.6V3.9z"/>
<path fill="#A3AEBA" d="M116.5,3.9h4.6v18.3H98.2V3.9h4.6v13.7h13.7V3.9z"/>
<path fill="#A3AEBA" d="M123.9,3.9h27.4v18.3h-4.6V8.5H140v13.7h-4.6V8.5h-6.9v13.7h-4.6V3.9z"/>
<g>
	<path fill="#A3AEBA" d="M62.9,8.5V3.9h25.3v18.3H62.9V10.7h4.6v7h16.2V8.5H62.9z"/>
</g>
</svg>
